<svg xmlns="http://www.w3.org/2000/svg" 
    xmlns:xlink="http://www.w3.org/1999/xlink"
    width="500pt"
    height="500pt"
    viewBox="0 0 500 500">
 <defs/>
 <g id="group0" transform="translate(5, 0)" fill="none">
  <path id="shape0" transform="translate(325.422924458155, 374.011328316071)" fill="#4e3362" fill-rule="evenodd" stroke="none" stroke-width="1" stroke-linecap="square" stroke-linejoin="bevel" d="M59.25 0C89.1917 29.1691 110.343 49.8384 122.703 62.0078C128.111 67.3319 122.927 78.0347 118.391 82.8047C113.335 88.1208 99.8601 98.6767 91.7031 104.648C86.3661 108.556 66.2582 107.634 58.8594 102.148C46.9382 93.3103 4.78125 53.1016 0 48.5C4.71875 44.625 54.4687 3.50521 59.25 0Z"/>
  <g id="group1" fill="none">
   <ellipse id="shape1" rx="220" ry="227.5" cx="220" cy="227.5" paint-order="fill markers stroke" fill="#4e3362" fill-rule="evenodd" stroke="none" stroke-width="1" stroke-linecap="square" stroke-linejoin="bevel"/>
   <g id="group2" transform="translate(60, 69.5008340656987)" fill="none">
    <g id="group3" fill="none">
     <path id="shape2" transform="translate(47, 28.9991659343014)" fill="#8860dc" fill-rule="evenodd" stroke="#8860dc" stroke-width="62" stroke-linecap="round" stroke-linejoin="round" d="M0 56.2637L113 0L226 56.2637L226 256L0 256Z"/>
     <path id="shape3" paint-order="fill markers stroke" fill="none" stroke="#ffffff" stroke-width="42" stroke-linecap="round" stroke-linejoin="round" d="M0 99.9992C49.8333 66.8332 135.82 -3.41596e-07 160 1.3095e-15C184.18 3.41597e-07 270.167 66.8332 320 99.9992"/>
    </g>
    <path id="shape4" transform="translate(-240, -130.000834065699)" fill="#ffffff" fill-rule="evenodd" stroke="#ffffff" stroke-width="20" stroke-linecap="round" stroke-linejoin="round" d="M416.8 249.6L416.8 295L463 295L463 329L416.8 329L416.8 375.6L382.8 375.6L382.8 329L337 329L337 295L382.8 295L382.8 249.6L416.8 249.6"/>
   </g>
  </g>
 </g>
</svg>
